<svg xmlns="http://www.w3.org/2000/svg" xml:space="preserve" style="fill-rule:evenodd;clip-rule:evenodd;stroke-linejoin:round;stroke-miterlimit:2" viewBox="0 0 48 48"><path d="M0 0h64v64H0z" style="fill:#22252e" transform="matrix(.7502 0 0 .7502 -.012 0)"/><path d="M6.48 10.896h13.477v13.419H6.48z" style="fill:#2c2727" transform="matrix(.7502 0 0 .7502 2.375 -.301)"/><path d="M6.48 10.896h13.477v13.419H6.48z" style="fill:#e3dcd1" transform="matrix(.40223 0 0 .39433 7.169 5.856)"/><path d="M6.48 10.896h13.477v13.419H6.48z" style="fill:#2c2727" transform="matrix(.7502 0 0 .7502 25.78 -.301)"/><path d="M6.48 10.896h13.477v13.419H6.48z" style="fill:#e3dcd1" transform="matrix(.40223 0 0 .39433 30.572 5.856)"/><path d="M6.48 10.896h13.477v13.419H6.48z" style="fill:#2c2727" transform="matrix(.7502 0 0 .7502 25.78 21.898)"/><path d="M6.48 10.896h13.477v13.419H6.48z" style="fill:#e3dcd1" transform="matrix(.40223 0 0 .39433 30.572 28.056)"/><path d="M6.48 10.896h13.477v13.419H6.48z" style="fill:#2c2727" transform="matrix(.7502 0 0 .7502 2.375 21.898)"/><path d="M6.48 10.896h13.477v13.419H6.48z" style="fill:#e3dcd1" transform="matrix(.40223 0 0 .39433 7.169 28.056)"/></svg>